<svg width="194" height="194" viewBox="0 0 194 194" fill="none" xmlns="http://www.w3.org/2000/svg">
<circle cx="97" cy="97" r="97" fill="#FF9B18"/>
<path opacity="0.24" fill-rule="evenodd" clip-rule="evenodd" d="M108.877 193.28L70.5 156L72 151.938L56.5 136.5L135 56.5L192.513 114.013C185.147 155.646 151.227 188.11 108.877 193.28Z" fill="black"/>
<path fill-rule="evenodd" clip-rule="evenodd" d="M126.03 120.451C105.977 120.451 71.0663 120.451 71.0663 120.451C67.3291 120.451 64.23 123.55 64.23 127.288C64.23 131.025 66.8734 133.85 70.6106 133.85V126.832H92.4867V134.124C98.8672 134.124 125.21 134.124 130.405 134.124C137.242 134.124 139.065 135.673 139.065 138.773C139.065 142.054 137.242 143.239 130.77 143.239H92.4867V156C92.4867 156 87.0176 150.531 81.5486 150.531C76.0796 150.531 70.6106 156 70.6106 156V143.239H68.7876C61.2221 143.239 55.115 137.132 55.115 129.566V66.6726C55.115 59.1071 61.2221 53 68.7876 53H126.212C133.778 53 139.885 59.1071 139.885 66.6726C139.885 66.6726 139.885 90.6451 139.885 106.596C139.885 115.62 133.049 120.451 126.03 120.451Z" fill="white"/>
<path fill-rule="evenodd" clip-rule="evenodd" d="M120.743 53H68.7875C61.235 53 55.1359 59.0861 55.115 66.6336V129.605C55.1359 137.153 61.235 143.239 68.7875 143.239H70.1548V133.836C66.6603 133.616 64.23 130.871 64.23 127.288C64.23 123.859 66.8384 120.968 70.1548 120.513V120.451L71.0663 120.451L92.4867 120.451L120.743 120.451V53ZM120.743 134.124H92.4866V143.239H120.743V134.124Z" fill="#C4C4C4"/>
<path fill-rule="evenodd" clip-rule="evenodd" d="M133.231 118.537C131.043 119.813 128.582 120.451 126.03 120.451C105.977 120.451 71.0663 120.451 71.0663 120.451C67.3291 120.451 64.23 123.55 64.23 127.288C64.23 131.025 66.8733 133.85 70.6105 133.85V126.832H92.4866V134.124C98.8671 134.124 125.21 134.124 130.405 134.124C131.499 134.124 132.411 134.124 133.231 134.215C131.772 130.204 130.679 124.28 133.231 118.537Z" fill="#313131"/>
</svg>
